<svg width="207" height="61" viewBox="0 0 207 61" fill="none" xmlns="http://www.w3.org/2000/svg">
<path d="M29.5 0.31842C25.6261 0.31842 21.7899 1.09932 18.2108 2.61628C14.6317 4.13341 11.3797 6.35693 8.6403 9.16004C5.90101 11.9633 3.72813 15.291 2.24554 18.9535C0.763123 22.616 0 26.5416 0 30.5058C0 34.47 0.763123 38.3956 2.24554 42.0581C3.72813 45.7206 5.90101 49.0483 8.6403 51.8516C11.3797 54.6547 14.6317 56.8782 18.2108 58.3953C21.7899 59.9123 25.6261 60.6932 29.5 60.6932V45.5995C27.5629 45.5995 25.6449 45.2091 23.8554 44.4505C22.0658 43.692 20.4398 42.5802 19.0702 41.1787C17.7005 39.7771 16.6141 38.1132 15.8729 36.2819C15.1315 34.4507 14.75 32.488 14.75 30.5058C14.75 28.5236 15.1315 26.5609 15.8729 24.7297C16.6141 22.8984 17.7005 21.2345 19.0702 19.8329C20.4398 18.4314 22.0658 17.3196 23.8554 16.5611C25.6449 15.8025 27.5629 15.4121 29.5 15.4121V0.31842Z" fill="#0F52FF"/>
<path d="M29.5 40.5682C34.9308 40.5682 39.3333 36.0631 39.3333 30.5058C39.3333 24.9484 34.9308 20.4433 29.5 20.4433C24.0692 20.4433 19.6667 24.9484 19.6667 30.5058C19.6667 36.0631 24.0692 40.5682 29.5 40.5682Z" fill="#0F52FF"/>
<path d="M0 30.5058C0 34.47 0.763123 38.3956 2.24554 42.0581C3.72813 45.7206 5.90101 49.0483 8.6403 51.8516C11.3797 54.6547 14.6317 56.8782 18.2108 58.3953C21.7899 59.9123 25.6261 60.6932 29.5 60.6932C33.3739 60.6932 37.2101 59.9123 40.7892 58.3953C44.3683 56.8782 47.6202 54.6547 50.3597 51.8516C53.099 49.0483 55.2719 45.7206 56.7545 42.0581C58.2369 38.3956 59 34.47 59 30.5058H44.25C44.25 32.488 43.8685 34.4507 43.1271 36.2819C42.3859 38.1132 41.2995 39.7771 39.9298 41.1787C38.5602 42.5802 36.9342 43.692 35.1446 44.4505C33.3551 45.2091 31.4371 45.5995 29.5 45.5995C27.5629 45.5995 25.6449 45.2091 23.8554 44.4505C22.0658 43.692 20.4398 42.5802 19.0702 41.1787C17.7005 39.7771 16.6141 38.1132 15.8729 36.2819C15.1315 34.4507 14.75 32.488 14.75 30.5058H0Z" fill="#5BD0F4"/>
<path d="M39.3334 30.5059C39.3334 27.8372 38.2974 25.2778 36.4534 23.3907C34.6092 21.5035 32.1081 20.4433 29.5001 20.4433C26.8921 20.4433 24.3911 21.5035 22.5469 23.3907C20.7027 25.2778 19.6667 27.8372 19.6667 30.5059H29.5001H39.3334Z" fill="#5BD0F4"/>
<path d="M74.4066 19.1639H70.7427V39.9932H74.4066V19.1639Z" fill="#0F52FF"/>
<path d="M76.7992 32.6143C76.7992 37.4347 80.056 40.4104 84.3597 40.4104C88.6633 40.4104 91.9201 37.4347 91.9201 32.6143C91.9201 27.7938 88.6633 24.8181 84.3597 24.8181C80.056 24.8181 76.7992 27.7938 76.7992 32.6143ZM80.4631 32.6143C80.4631 29.7577 82.0915 28.0913 84.3597 28.0913C86.6278 28.0913 88.2562 29.7577 88.2562 32.6143C88.2562 35.4708 86.6278 37.1372 84.3597 37.1372C82.0915 37.1372 80.4631 35.4708 80.4631 32.6143Z" fill="#0F52FF"/>
<path d="M105.013 25.2347V27.2283H104.722C103.85 25.9489 102.454 24.8181 99.9533 24.8181C96.5221 24.8181 93.4397 27.7938 93.4397 32.3762C93.4397 36.9586 96.5221 39.9343 99.9533 39.9343C102.454 39.9343 103.85 38.7737 104.664 37.6133H104.955V39.0416C104.955 41.8982 103.326 43.2074 100.942 43.2074C98.5575 43.2074 97.3362 41.8982 96.8418 40.202L93.556 41.6601C94.3121 43.8917 96.522 46.3616 101 46.3616C105.595 46.3616 108.619 43.8917 108.619 39.1308V25.2347H105.013ZM101.058 36.7206C98.7902 36.7206 97.1036 35.0543 97.1036 32.3762C97.1036 29.6982 98.7902 28.0318 101.058 28.0318C103.326 28.0318 105.013 29.6982 105.013 32.3762C105.013 35.0543 103.326 36.7206 101.058 36.7206Z" fill="#0F52FF"/>
<path d="M110.989 32.6143C110.989 37.4347 114.246 40.4104 118.55 40.4104C122.853 40.4104 126.11 37.4347 126.11 32.6143C126.11 27.7938 122.853 24.8181 118.55 24.8181C114.246 24.8181 110.989 27.7938 110.989 32.6143ZM114.653 32.6143C114.653 29.7577 116.282 28.0913 118.55 28.0913C120.818 28.0913 122.446 29.7577 122.446 32.6143C122.446 35.4708 120.818 37.1372 118.55 37.1372C116.282 37.1372 114.653 35.4708 114.653 32.6143Z" fill="#0F52FF"/>
<path d="M128.986 20.9493C128.986 22.4669 130.12 23.5083 131.575 23.5083C133.028 23.5083 134.163 22.4669 134.163 20.9493C134.163 19.4318 133.028 18.3902 131.575 18.3902C130.12 18.3902 128.986 19.4318 128.986 20.9493ZM133.406 25.2341H129.743V39.9932H133.406V25.2341Z" fill="#5BD0F4"/>
<path d="M136.671 45.945H140.336V38.0894H140.626C141.44 39.2796 142.836 40.4104 145.337 40.4104C148.768 40.4104 151.851 37.4347 151.851 32.6143C151.851 27.7938 148.768 24.8181 145.337 24.8181C142.836 24.8181 141.44 25.9489 140.568 27.2285H140.277V25.2347H136.671V45.945ZM144.231 37.1967C141.964 37.1967 140.277 35.5304 140.277 32.6143C140.277 29.6982 141.964 28.0318 144.231 28.0318C146.5 28.0318 148.186 29.6982 148.186 32.6143C148.186 35.5304 146.5 37.1967 144.231 37.1967Z" fill="#5BD0F4"/>
<path d="M153.989 29.3709C153.989 32.287 156.372 33.3582 159.396 33.9534L160.153 34.1021C161.955 34.4591 162.769 34.9056 162.769 35.8578C162.769 36.81 161.955 37.5538 160.27 37.5538C158.582 37.5538 157.217 36.8396 156.837 34.6972L153.464 35.5899C153.96 38.6845 156.489 40.4104 160.27 40.4104C163.933 40.4104 166.318 38.6548 166.318 35.5602C166.318 32.4654 163.875 31.6324 160.619 30.9778L159.862 30.8289C158.35 30.5313 157.535 30.1147 157.535 29.1329C157.535 28.2402 158.292 27.6747 159.688 27.6747C161.084 27.6747 162.072 28.2699 162.421 29.8767L165.736 28.8353C165.038 26.4548 162.916 24.8181 159.688 24.8181C156.256 24.8181 153.989 26.4548 153.989 29.3709Z" fill="#5BD0F4"/>
<path d="M182.775 39.9932V25.2341H179.112V32.8517C179.112 35.5893 177.804 37.1961 175.564 37.1961C173.586 37.1961 172.482 36.0952 172.482 33.8634V25.2341H168.817V34.0419C168.817 37.702 171.058 40.2312 174.431 40.2312C177.076 40.2312 178.298 39.041 178.879 37.7912H179.169V39.9932H182.775Z" fill="#5BD0F4"/>
<path d="M186.025 25.2344V39.9934H189.69V31.1856C189.69 29.1622 190.621 28.0315 192.306 28.0315C193.761 28.0315 194.633 28.8646 194.633 30.4715V39.9934H198.297V31.1856C198.297 29.1622 199.228 28.0315 200.914 28.0315C202.368 28.0315 203.24 28.8646 203.24 30.4715V39.9934H206.905V30.2929C206.905 26.7222 204.752 24.9963 202.077 24.9963C199.722 24.9963 198.646 26.0676 197.948 27.3173H197.657C196.988 25.9189 195.796 24.9963 193.702 24.9963C191.609 24.9963 190.474 25.9485 189.923 27.0793H189.631V25.2344H186.025Z" fill="#5BD0F4"/>
</svg>
