<svg width="295" height="61" viewBox="0 0 295 61" fill="none" xmlns="http://www.w3.org/2000/svg">
<path d="M41.8181 50.2868L2.33861 22.4194C-1.66215 19.5955 -0.302154 13.7157 4.6867 12.333L46.6463 0.679362C47.5351 0.351166 48.4876 0.24463 49.4248 0.368597C50.3619 0.492564 51.2566 0.843458 52.0347 1.39216C52.8127 1.94086 53.4517 2.67154 53.8985 3.52355C54.3453 4.37557 54.5871 5.32434 54.6038 6.29114L52.1171 45.81C51.8222 50.5008 45.8188 53.1107 41.8181 50.2868Z" fill="#E9327C"/>
<path d="M29.2964 57.166L6.03784 10.6212C5.50618 9.55635 5.27222 8.36197 5.36177 7.16974C5.45132 5.97751 5.86089 4.83374 6.54532 3.86457C7.22975 2.89541 8.16245 2.1385 9.24056 1.67731C10.3187 1.21612 11.5003 1.06857 12.6552 1.25094L55.7591 8.05848C56.7515 8.21523 57.6933 8.61078 58.5072 9.21261C59.3211 9.81444 59.9838 10.6054 60.4407 11.5203C60.8977 12.4353 61.1359 13.4482 61.1357 14.4758C61.1355 15.5033 60.8971 16.5161 60.4398 17.431L40.5835 57.1683C40.0503 58.23 39.2414 59.1208 38.2456 59.7427C37.2498 60.3645 36.1058 60.6934 34.9393 60.6932C33.7727 60.6929 32.6288 60.3636 31.6333 59.7413C30.6378 59.1191 29.8292 58.228 29.2964 57.166V57.166Z" fill="#1DACE3"/>
<path d="M54.4982 7.85854L33.0111 4.4649L6.62985 11.7949L17.1599 32.8751L41.8181 50.2869C42.3621 50.6667 42.9605 50.9577 43.5918 51.1494L52.9577 32.4067L54.4982 7.85854Z" fill="#3A68B8"/>
<path d="M163.335 13.2989C163.335 12.4816 163.572 11.6827 164.016 11.0031C164.459 10.3236 165.09 9.79394 165.828 9.48117C166.566 9.16841 167.378 9.08659 168.161 9.24603C168.944 9.40547 169.664 9.79904 170.229 10.3769C170.793 10.9549 171.178 11.6911 171.334 12.4927C171.49 13.2943 171.41 14.1252 171.104 14.8802C170.798 15.6353 170.281 16.2807 169.617 16.7347C168.953 17.1888 168.172 17.4312 167.373 17.4312C166.306 17.42 165.285 16.9811 164.53 16.2085C163.775 15.436 163.346 14.3914 163.335 13.2989V13.2989ZM164.008 19.4511H170.74V42.4072H164.008V19.4511Z" fill="white"/>
<path d="M199.81 30.9293C199.889 32.4467 199.673 33.9649 199.176 35.3966C198.678 36.8284 197.91 38.1454 196.913 39.272C195.917 40.3985 194.713 41.3124 193.37 41.961C192.027 42.6096 190.572 42.9802 189.089 43.0514C187.841 43.1209 186.594 42.9056 185.438 42.4211C184.282 41.9366 183.245 41.195 182.403 40.25V51.5907H175.674V19.4513H182.403V21.6086C183.245 20.6641 184.282 19.9229 185.438 19.4388C186.594 18.9547 187.841 18.7397 189.089 18.8095C190.572 18.8804 192.027 19.2507 193.37 19.8991C194.712 20.5475 195.917 21.4612 196.913 22.5875C197.909 23.7139 198.678 25.0308 199.176 26.4624C199.673 27.894 199.889 29.4121 199.81 30.9293ZM193.081 30.9293C193.054 29.8545 192.719 28.8116 192.116 27.931C191.513 27.0504 190.67 26.3714 189.692 25.9788C188.714 25.5861 187.644 25.4974 186.617 25.7238C185.59 25.9501 184.651 26.4814 183.918 27.2511C183.184 28.0209 182.689 28.9949 182.494 30.0513C182.298 31.1078 182.412 32.1996 182.82 33.1903C183.229 34.1809 183.913 35.0264 184.789 35.6208C185.664 36.2152 186.691 36.5322 187.742 36.5321C188.464 36.5654 189.184 36.4421 189.855 36.1704C190.527 35.8987 191.135 35.4847 191.639 34.9555C192.143 34.4264 192.532 33.7942 192.781 33.1003C193.029 32.4064 193.132 31.6665 193.081 30.9293V30.9293Z" fill="white"/>
<path d="M220.583 35.5165C220.583 40.7973 216.096 43.0469 211.25 43.0469C209.292 43.2282 207.327 42.8042 205.607 41.8299C203.888 40.8555 202.493 39.3756 201.605 37.5815L207.436 34.1857C207.673 35.0149 208.181 35.7358 208.876 36.2277C209.57 36.7195 210.408 36.9526 211.25 36.8879C212.865 36.8879 213.671 36.3813 213.671 35.4647C213.671 32.9381 202.634 34.2712 202.634 26.3265C202.634 21.3227 206.761 18.7983 211.437 18.7983C213.191 18.742 214.928 19.1679 216.466 20.0317C218.005 20.8955 219.289 22.1656 220.185 23.7097L214.443 26.8782C214.192 26.2756 213.773 25.762 213.238 25.4016C212.704 25.0411 212.077 24.8498 211.437 24.8515C210.271 24.8515 209.553 25.3018 209.553 26.1373C209.547 28.772 220.583 27.0268 220.583 35.5165Z" fill="white"/>
<path d="M245.179 19.4509V42.407H238.449V40.2451C237.672 41.1974 236.685 41.9478 235.57 42.4347C234.454 42.9216 233.242 43.1313 232.032 43.0465C227.501 43.0465 223.644 39.7407 223.644 33.5412V19.4509H230.373V32.5368C230.316 33.0839 230.377 33.6371 230.551 34.1579C230.724 34.6786 231.007 35.1544 231.378 35.552C231.75 35.9496 232.202 36.2596 232.702 36.4603C233.203 36.661 233.74 36.7476 234.277 36.7141C236.744 36.7141 238.458 35.2459 238.458 31.9851V19.4509H245.179Z" fill="white"/>
<path d="M283.752 28.3096V42.4066H277.022V28.9086C277.022 26.6139 275.944 25.1434 273.792 25.1434C271.547 25.1434 270.293 26.7513 270.293 29.4604V42.4066H263.561V28.9086C263.561 26.6139 262.485 25.1434 260.331 25.1434C258.088 25.1434 256.832 26.7513 256.832 29.4604V42.4066H250.102V19.4506H256.843V21.5539C257.54 20.6173 258.456 19.8746 259.506 19.3935C260.556 18.9124 261.708 18.7082 262.855 18.7998C264.007 18.7421 265.154 18.9908 266.184 19.5216C267.214 20.0524 268.092 20.8473 268.733 21.8286C269.479 20.8018 270.467 19.9854 271.605 19.4557C272.743 18.926 273.994 18.7003 275.24 18.7998C280.389 18.8088 283.752 22.5717 283.752 28.3096Z" fill="white"/>
<path d="M289.454 19.309C292.213 19.309 294.449 17.0203 294.449 14.1971C294.449 11.3739 292.213 9.08527 289.454 9.08527C286.695 9.08527 284.458 11.3739 284.458 14.1971C284.458 17.0203 286.695 19.309 289.454 19.309Z" fill="white"/>
<path d="M71.4542 8.89175H78.1859V42.407H71.4542V8.89175ZM81.9974 30.929C81.99 28.5223 82.6807 26.1675 83.9819 24.1627C85.2832 22.1579 87.1365 20.5933 89.3073 19.6671C91.478 18.7408 93.8686 18.4945 96.1762 18.9594C98.4838 19.4243 100.605 20.5794 102.27 22.2785C103.936 23.9776 105.072 26.1443 105.533 28.5042C105.995 30.8642 105.762 33.3112 104.863 35.5354C103.965 37.7596 102.442 39.6611 100.487 40.999C98.5318 42.3369 96.2328 43.0511 93.8809 43.0511C92.3188 43.0682 90.7691 42.7666 89.3223 42.1639C87.8754 41.5613 86.5604 40.6696 85.454 39.5411C84.3477 38.4125 83.4722 37.0697 82.8787 35.591C82.2852 34.1124 81.9856 32.5275 81.9974 30.929V30.929ZM99.048 30.929C99.0216 29.8908 98.6966 28.8837 98.1138 28.0335C97.5309 27.1834 96.716 26.528 95.7711 26.1493C94.8261 25.7706 93.793 25.6854 92.8009 25.9044C91.8089 26.1234 90.902 26.6369 90.1937 27.3806C89.4853 28.1243 89.007 29.0652 88.8185 30.0856C88.63 31.1061 88.7398 32.1607 89.134 33.1177C89.5282 34.0746 90.1894 34.8914 91.0349 35.4658C91.8804 36.0402 92.8726 36.3468 93.8875 36.3471C94.5824 36.3674 95.2739 36.2401 95.9184 35.9733C96.5629 35.7065 97.1463 35.3059 97.632 34.7969C98.1177 34.2878 98.495 33.6813 98.7402 33.0156C98.9855 32.3499 99.0932 31.6394 99.0568 30.929H99.048ZM132.606 19.4442V41.254C132.606 48.9669 126.728 52.2254 120.762 52.2254C118.662 52.3876 116.559 51.955 114.683 50.9751C112.807 49.9951 111.231 48.5056 110.128 46.6699L115.87 43.2718C116.333 44.2299 117.071 45.0203 117.986 45.5374C118.9 46.0545 119.947 46.2737 120.986 46.1655C121.649 46.2582 122.325 46.1973 122.962 45.9872C123.599 45.7772 124.182 45.4235 124.668 44.9521C125.154 44.4807 125.53 43.9036 125.769 43.2636C126.008 42.6235 126.103 41.9368 126.048 41.254V39.1417C125.259 40.1282 124.256 40.912 123.118 41.4301C121.981 41.9483 120.74 42.1864 119.496 42.1255C116.535 42.0314 113.726 40.7615 111.664 38.5848C109.602 36.4081 108.449 33.4956 108.449 30.464C108.449 27.4324 109.602 24.5199 111.664 22.3432C113.726 20.1665 116.535 18.8966 119.496 18.8024C120.74 18.7415 121.981 18.9797 123.118 19.4979C124.256 20.016 125.259 20.7998 126.048 21.7862V19.4442H132.606ZM126.056 30.4629C126.101 29.3541 125.82 28.2571 125.25 27.3129C124.68 26.3688 123.848 25.6205 122.859 25.1645C121.87 24.7085 120.771 24.5655 119.702 24.754C118.634 24.9424 117.645 25.4536 116.862 26.2219C116.08 26.9902 115.54 27.9804 115.311 29.0653C115.083 30.1501 115.178 31.28 115.582 32.3097C115.986 33.3393 116.682 34.2216 117.581 34.8432C118.479 35.4648 119.539 35.7972 120.623 35.7977C121.33 35.8485 122.04 35.7474 122.706 35.5008C123.373 35.2541 123.982 34.8674 124.493 34.3656C125.005 33.8638 125.409 33.2579 125.678 32.5869C125.947 31.9159 126.076 31.1947 126.056 30.4696V30.4629ZM136.417 30.9132C136.41 28.5065 137.1 26.1517 138.402 24.1469C139.703 22.1421 141.556 20.5775 143.727 19.6513C145.898 18.725 148.288 18.4787 150.596 18.9436C152.903 19.4085 155.024 20.5636 156.69 22.2628C158.356 23.9619 159.491 26.1286 159.953 28.4885C160.414 30.8484 160.181 33.2954 159.283 35.5196C158.385 37.7439 156.861 39.6453 154.906 40.9832C152.951 42.3211 150.652 43.0353 148.3 43.0353C146.74 43.0524 145.191 42.7513 143.745 42.1496C142.3 41.5479 140.985 40.6577 139.879 39.5308C138.773 38.404 137.897 37.063 137.303 35.5862C136.708 34.1093 136.407 32.5262 136.417 30.929V30.9132ZM153.468 30.9132C153.442 29.8744 153.117 28.8665 152.534 28.0157C151.951 27.1648 151.136 26.5087 150.19 26.1296C149.245 25.7504 148.211 25.665 147.218 25.8841C146.226 26.1031 145.318 26.6168 144.609 27.361C143.901 28.1051 143.422 29.0467 143.234 30.0678C143.045 31.0889 143.155 32.1442 143.55 33.1016C143.944 34.0591 144.606 34.8761 145.452 35.4506C146.299 36.0251 147.292 36.3315 148.307 36.3314C149 36.3502 149.689 36.2224 150.331 35.956C150.974 35.6896 151.555 35.2902 152.04 34.7831C152.524 34.2759 152.901 33.6717 153.147 33.0086C153.393 32.3454 153.502 31.6374 153.468 30.929V30.9132Z" fill="white"/>
</svg>
