<svg width="218" height="61" viewBox="0 0 218 61" fill="none" xmlns="http://www.w3.org/2000/svg">
<path d="M17.9567 57.9327L11.9975 47.3705L20.743 31.9123L26.3004 41.7632L59.1069 41.745L49.7979 58.0785L17.9567 57.9327Z" fill="#FFAD64"/>
<path d="M64.9648 31.2575L59.0056 41.8196L41.5506 41.7986L47.1086 31.9481L30.6901 2.88382L49.1677 2.96678L64.9648 31.2575Z" fill="#ADD4D3"/>
<path d="M18.8748 2.82684H30.7932L39.5028 18.3063L28.3871 18.3059L11.9993 47.3882L2.83063 30.9718L18.8748 2.82684Z" fill="#FB8351"/>
<path fill-rule="evenodd" clip-rule="evenodd" d="M32.2463 0.381514L32.2108 0.31842H17.4668L0 30.9593L11.99 52.4273L12.0047 52.4013L16.5374 60.4351L51.2023 60.5938L63.3759 39.2341H63.2949L67.792 31.2635L50.5939 0.463887L32.2463 0.381514ZM43.6518 20.8153H43.7437L35.0767 5.41179L47.7413 5.46861L62.1375 31.2505L57.6314 39.2373L45.8226 39.2437L49.9399 31.9467L43.6518 20.8153ZM29.2438 5.33585L35.1536 15.7976L26.9712 15.7973L12.9627 40.6569L12.0072 42.346L5.6619 30.9848L20.2831 5.33585H29.2438ZM23.5619 31.8917L29.8037 20.8149L37.9881 20.8152L44.2772 31.9482L40.159 39.2469L27.7154 39.2538L23.5619 31.8917ZM14.8338 47.3806L17.2085 43.1666L20.7398 36.9249L24.8853 44.2728L37.327 44.2659L37.3069 44.3016L54.7996 44.3228L48.3932 55.5634L19.3756 55.4305L14.8338 47.3806Z" fill="#333237"/>
<path d="M82.0712 51.8656V40.1206H77.8291V38.8021H87.9389V40.1206H83.6967V51.8656H82.0712Z" fill="white"/>
<path d="M92.4557 52.069C90.7773 52.069 89.5219 51.6565 88.6893 50.8316C87.8567 50.0068 87.4405 48.7355 87.4405 47.018C87.4405 45.4764 87.7973 44.2661 88.5109 43.387C89.2377 42.4945 90.3809 42.0482 91.9403 42.0482C92.8653 42.0482 93.6252 42.224 94.2199 42.5757C94.8278 42.9137 95.2772 43.387 95.568 43.9956C95.8718 44.5906 96.0238 45.2668 96.0238 46.0241V47.8294H89.066C89.1188 48.5597 89.2708 49.1344 89.5218 49.5537C89.7862 49.9729 90.176 50.2771 90.6915 50.4665C91.22 50.6422 91.9139 50.7301 92.7728 50.7301C93.7375 50.7301 94.623 50.5612 95.4291 50.2231V51.5213C95.0195 51.6971 94.5569 51.8324 94.0415 51.927C93.5393 52.0217 93.0108 52.069 92.4557 52.069ZM89.066 46.6327H94.5767V45.8415C94.5767 45.0571 94.3719 44.4554 93.9622 44.0362C93.5658 43.6034 92.905 43.387 91.9799 43.387C90.8566 43.387 90.0902 43.6575 89.6804 44.1985C89.2708 44.7393 89.066 45.5507 89.066 46.6327Z" fill="white"/>
<path d="M102.847 52.069C101.208 52.069 99.992 51.6362 99.1992 50.7707C98.4062 49.8918 98.0097 48.6543 98.0097 47.0586C98.0097 45.3682 98.459 44.1105 99.3577 43.2856C100.256 42.4608 101.466 42.0482 102.985 42.0482C103.607 42.0482 104.122 42.0955 104.532 42.1903C104.941 42.2713 105.338 42.4066 105.721 42.5958V43.9144C105.007 43.5629 104.195 43.387 103.283 43.387C102.12 43.387 101.221 43.6711 100.587 44.2391C99.9523 44.7935 99.6352 45.7333 99.6352 47.0586C99.6352 48.3298 99.9128 49.2629 100.468 49.8579C101.023 50.4395 101.941 50.7301 103.223 50.7301C104.135 50.7301 104.974 50.5544 105.741 50.2028V51.5416C105.331 51.7174 104.888 51.8458 104.413 51.927C103.95 52.0217 103.428 52.069 102.847 52.069Z" fill="white"/>
<path d="M107.563 51.8656V38.1935H109.188V43.2851C109.625 42.92 110.133 42.6225 110.715 42.3926C111.31 42.1626 111.997 42.0476 112.776 42.0476C113.913 42.0476 114.765 42.3317 115.334 42.8997C115.902 43.4677 116.186 44.3602 116.186 45.5772V51.8656H114.561V45.6381C114.561 44.7996 114.376 44.2182 114.006 43.8936C113.649 43.5556 113.054 43.3865 112.221 43.3865C111.693 43.3865 111.144 43.5081 110.576 43.7516C110.021 43.9815 109.559 44.2858 109.188 44.6644V51.8656H107.563Z" fill="white"/>
<path d="M122.669 52.0689C121.347 52.0689 120.29 51.7714 119.497 51.1762C118.704 50.5812 118.308 49.7834 118.308 48.7826C118.308 47.8631 118.585 47.0719 119.14 46.4093C119.695 45.7467 120.455 45.1584 121.42 44.6446C120.904 44.1172 120.468 43.6235 120.112 43.1638C119.755 42.704 119.576 42.1494 119.576 41.5004C119.576 40.6889 119.847 40.006 120.389 39.4516C120.944 38.8836 121.724 38.5997 122.728 38.5997C123.706 38.5997 124.466 38.8633 125.008 39.3907C125.549 39.9181 125.821 40.6213 125.821 41.5004C125.821 42.2306 125.629 42.8459 125.245 43.3463C124.862 43.8467 124.314 44.3538 123.6 44.8677L126.891 48.2958C127.115 47.7955 127.228 47.1598 127.228 46.389V46.1051H128.517V46.389C128.517 46.9165 128.457 47.4303 128.338 47.9307C128.22 48.4311 128.047 48.8638 127.823 49.2289L129.607 51.0749L128.615 51.9877L127.029 50.3852C126.567 50.9667 125.966 51.3927 125.226 51.6632C124.486 51.9337 123.633 52.0689 122.669 52.0689ZM122.589 44.0563C123.211 43.6641 123.68 43.2923 123.997 42.9406C124.314 42.5755 124.473 42.1157 124.473 41.5613C124.473 41.0473 124.334 40.6416 124.056 40.3441C123.792 40.0332 123.349 39.8776 122.728 39.8776C122.094 39.8776 121.631 40.0399 121.341 40.3644C121.063 40.6889 120.924 41.0879 120.924 41.5613C120.924 41.994 121.07 42.3929 121.36 42.758C121.664 43.1232 122.074 43.5559 122.589 44.0563ZM122.669 50.872C123.435 50.872 124.089 50.7571 124.631 50.5272C125.186 50.2837 125.655 49.9255 126.039 49.4521L122.411 45.6587C121.552 46.0645 120.911 46.5039 120.488 46.9773C120.079 47.4371 119.874 48.0253 119.874 48.7422C119.874 49.4452 120.138 49.9795 120.667 50.3446C121.195 50.6962 121.863 50.872 122.669 50.872Z" fill="#FB8351"/>
<path d="M78.4695 29.3198V11.2319H83.6296V25.2752H91.5893V29.3198H78.4695Z" fill="#FB8351"/>
<path d="M99.8905 29.6009C97.2922 29.6009 95.3708 29.0109 94.1266 27.8313C92.9007 26.6516 92.2877 24.929 92.2877 22.6633C92.2877 20.4165 92.9098 18.7031 94.1541 17.5235C95.3984 16.3251 97.3105 15.7259 99.8905 15.7259C102.489 15.7259 104.41 16.3251 105.654 17.5235C106.917 18.7031 107.548 20.4165 107.548 22.6633C107.548 24.929 106.926 26.6516 105.682 27.8313C104.438 29.0109 102.507 29.6009 99.8905 29.6009ZM99.8905 25.7529C100.732 25.7529 101.336 25.5095 101.702 25.0226C102.086 24.5358 102.278 23.7493 102.278 22.6633C102.278 21.5961 102.086 20.819 101.702 20.3322C101.336 19.8266 100.732 19.5737 99.8905 19.5737C99.0671 19.5737 98.4724 19.8266 98.1064 20.3322C97.7405 20.819 97.5575 21.5961 97.5575 22.6633C97.5575 23.7493 97.7405 24.5358 98.1064 25.0226C98.4724 25.5095 99.0671 25.7529 99.8905 25.7529Z" fill="#FB8351"/>
<path d="M115.191 34.2632C114.55 34.2632 113.855 34.2352 113.105 34.179C112.354 34.1416 111.641 34.0666 110.964 33.9543C110.305 33.842 109.756 33.7109 109.317 33.561V30.1906C109.811 30.3591 110.378 30.4996 111.019 30.612C111.677 30.7243 112.345 30.8085 113.022 30.8648C113.699 30.9209 114.321 30.949 114.889 30.949C115.859 30.949 116.618 30.8928 117.167 30.7805C117.734 30.6869 118.018 30.509 118.018 30.2468C118.018 30.0222 117.926 29.8724 117.743 29.7974C117.56 29.7412 117.213 29.7132 116.7 29.7132H113.269C111.934 29.7132 110.9 29.4979 110.168 29.0672C109.454 28.6178 109.097 27.9531 109.097 27.073C109.097 25.8371 109.765 24.9759 111.101 24.4891C110.351 24.0958 109.802 23.5996 109.454 23.0004C109.106 22.4013 108.933 21.6428 108.933 20.7254C108.933 19.0027 109.5 17.7388 110.634 16.9336C111.787 16.1286 113.443 15.7259 115.602 15.7259C116.06 15.7259 116.572 15.7633 117.139 15.8382C117.707 15.8944 118.118 15.9507 118.374 16.0067H123.48L123.37 19.2086H121.641C121.97 19.6393 122.135 20.1636 122.135 20.7816C122.135 22.1485 121.741 23.2345 120.955 24.0397C120.186 24.826 118.969 25.2193 117.304 25.2193C117.066 25.2193 116.81 25.21 116.535 25.1911C116.261 25.1538 116.005 25.1257 115.767 25.1069C115.364 25.1444 115.017 25.2193 114.724 25.3316C114.431 25.444 114.285 25.6312 114.285 25.8934C114.285 26.0806 114.367 26.2117 114.532 26.2865C114.697 26.3428 114.925 26.3708 115.218 26.3708H118.21C119.546 26.3708 120.598 26.6892 121.366 27.3258C122.135 27.9625 122.519 28.8986 122.519 30.1345C122.519 31.4452 121.924 32.4563 120.735 33.1678C119.546 33.8981 117.698 34.2632 115.191 34.2632ZM115.63 22.3264C116.435 22.3264 116.993 22.1859 117.304 21.905C117.615 21.6241 117.771 21.1561 117.771 20.5007C117.771 19.8452 117.615 19.3678 117.304 19.0683C116.993 18.7687 116.435 18.6189 115.63 18.6189C114.88 18.6189 114.331 18.7687 113.983 19.0683C113.654 19.3491 113.489 19.8266 113.489 20.5007C113.489 21.1374 113.644 21.6055 113.955 21.905C114.285 22.1859 114.843 22.3264 115.63 22.3264Z" fill="#FB8351"/>
<path d="M131.895 29.6009C129.296 29.6009 127.375 29.0109 126.13 27.8313C124.904 26.6516 124.291 24.929 124.291 22.6633C124.291 20.4165 124.914 18.7031 126.158 17.5235C127.402 16.3251 129.315 15.7259 131.895 15.7259C134.493 15.7259 136.414 16.3251 137.658 17.5235C138.922 18.7031 139.552 20.4165 139.552 22.6633C139.552 24.929 138.93 26.6516 137.686 27.8313C136.441 29.0109 134.511 29.6009 131.895 29.6009ZM131.895 25.7529C132.736 25.7529 133.34 25.5095 133.706 25.0226C134.09 24.5358 134.283 23.7493 134.283 22.6633C134.283 21.5961 134.09 20.819 133.706 20.3322C133.34 19.8266 132.736 19.5737 131.895 19.5737C131.072 19.5737 130.476 19.8266 130.11 20.3322C129.744 20.819 129.562 21.5961 129.562 22.6633C129.562 23.7493 129.744 24.5358 130.11 25.0226C130.476 25.5095 131.072 25.7529 131.895 25.7529Z" fill="#FB8351"/>
<path d="M141.82 14.2367V10.4169H147.392V14.2367H141.82ZM142.231 29.3194V19.8541H140.339L140.777 16.0063H147.392V29.3194H142.231Z" fill="white"/>
<path d="M149.867 35.3867V16.0067H154.342L154.588 17.0739C155.118 16.6434 155.695 16.3156 156.317 16.091C156.958 15.8476 157.698 15.7259 158.541 15.7259C160.48 15.7259 161.972 16.2314 163.015 17.2425C164.075 18.2349 164.606 19.9295 164.606 22.3262C164.606 24.7044 164.048 26.5112 162.932 27.747C161.816 28.9829 160.279 29.6007 158.321 29.6007C157.022 29.6007 155.924 29.348 155.027 28.8424V35.3867H149.867ZM157.003 25.7529C157.754 25.7529 158.331 25.4813 158.733 24.9383C159.136 24.3953 159.337 23.5527 159.337 22.4105C159.337 21.3058 159.144 20.5568 158.76 20.1636C158.394 19.7703 157.827 19.5737 157.058 19.5737C156.29 19.5737 155.613 19.8359 155.027 20.3602V25.0788C155.321 25.3035 155.613 25.472 155.906 25.5843C156.198 25.6966 156.564 25.7529 157.003 25.7529Z" fill="white"/>
<path d="M171.483 29.6007C170.367 29.6007 169.315 29.5166 168.327 29.348C167.357 29.1982 166.589 29.0016 166.021 28.7581V24.9664C166.661 25.2661 167.421 25.5 168.299 25.6686C169.196 25.8371 169.956 25.9214 170.576 25.9214C171.236 25.9214 171.73 25.9027 172.059 25.8652C172.408 25.8278 172.58 25.6686 172.58 25.3877C172.58 25.0695 172.279 24.826 171.675 24.6575C171.072 24.4889 170.312 24.2455 169.398 23.9272C168.207 23.4965 167.319 22.991 166.734 22.4105C166.149 21.8301 165.857 20.9875 165.857 19.8826C165.857 18.5533 166.369 17.5328 167.394 16.8213C168.418 16.091 170.028 15.7259 172.223 15.7259C173.066 15.7259 173.935 15.7913 174.831 15.9225C175.727 16.0535 176.432 16.2033 176.945 16.3719V20.0794C176.395 19.8359 175.792 19.658 175.134 19.5457C174.493 19.4332 173.908 19.3772 173.377 19.3772C172.792 19.3772 172.269 19.4052 171.812 19.4614C171.354 19.5175 171.126 19.6767 171.126 19.9389C171.126 20.2384 171.383 20.4538 171.895 20.5849C172.425 20.716 173.13 20.9219 174.008 21.2028C174.997 21.5023 175.764 21.8301 176.314 22.1859C176.881 22.5416 177.275 22.9722 177.494 23.4778C177.731 23.9835 177.851 24.6106 177.851 25.3597C177.851 26.7079 177.31 27.7564 176.231 28.5053C175.169 29.2356 173.586 29.6007 171.483 29.6007Z" fill="white"/>
<path d="M184.501 29.6002C182.982 29.6002 181.793 29.1603 180.933 28.2802C180.074 27.4001 179.644 26.1082 179.644 24.4042V16.0063H184.803V23.983C184.803 25.1438 185.38 25.7244 186.532 25.7244C186.953 25.7244 187.365 25.6307 187.768 25.4435C188.17 25.2563 188.49 25.0221 188.728 24.7413V16.0063H193.888V29.3194H189.058L188.921 28.3083C188.409 28.6828 187.776 28.9918 187.027 29.2351C186.295 29.4786 185.453 29.6002 184.501 29.6002Z" fill="white"/>
<path d="M196.346 29.3199V16.0067H201.121L201.258 17.0739C201.826 16.6808 202.457 16.3625 203.152 16.1191C203.866 15.8569 204.644 15.7259 205.486 15.7259C206.326 15.7259 206.986 15.8476 207.461 16.091C207.938 16.3343 208.322 16.6901 208.614 17.1582C209.199 16.7276 209.859 16.3812 210.591 16.1191C211.34 15.8569 212.219 15.7259 213.226 15.7259C214.744 15.7259 215.86 16.1378 216.574 16.9616C217.288 17.7668 217.644 19.0027 217.644 20.6691V29.3199H212.566V21.2871C212.566 20.6878 212.448 20.2666 212.21 20.0231C211.973 19.761 211.579 19.63 211.029 19.63C210.316 19.63 209.73 19.8921 209.274 20.4163C209.309 20.6598 209.328 20.8939 209.328 21.1185C209.328 21.3245 209.328 21.5586 209.328 21.8207V29.3199H204.552V21.2028C204.552 20.6598 204.461 20.2666 204.278 20.0231C204.094 19.761 203.747 19.63 203.235 19.63C202.887 19.63 202.548 19.7236 202.219 19.9108C201.889 20.0981 201.596 20.3227 201.341 20.5849V29.3199H196.346Z" fill="white"/>
<path d="M138.011 52.2366C136.636 52.2366 135.493 51.9728 134.581 51.4454C133.683 50.9045 133.01 50.1539 132.56 49.1938C132.11 48.2202 131.886 47.0842 131.886 45.786C131.886 44.3661 132.098 43.1286 132.52 42.0738C132.943 41.019 133.603 40.2076 134.503 39.6396C135.402 39.0581 136.563 38.7674 137.991 38.7674C138.731 38.7674 139.398 38.8214 139.993 38.9296C140.601 39.0378 141.169 39.1865 141.699 39.376V40.8365C141.169 40.6336 140.608 40.4781 140.013 40.3698C139.418 40.2482 138.791 40.1873 138.131 40.1873C136.98 40.1873 136.068 40.4104 135.395 40.8568C134.721 41.3029 134.238 41.9453 133.947 42.7838C133.656 43.6222 133.511 44.623 133.511 45.786C133.511 47.3952 133.882 48.6394 134.621 49.5184C135.375 50.3839 136.558 50.8167 138.169 50.8167C138.764 50.8167 139.365 50.7692 139.973 50.6746C140.594 50.5799 141.169 50.4313 141.699 50.2284V51.7092C141.182 51.8715 140.621 51.9998 140.013 52.0946C139.418 52.1893 138.751 52.2366 138.011 52.2366Z" fill="white"/>
<path d="M148.373 52.236C146.734 52.236 145.538 51.81 144.785 50.9581C144.045 50.0926 143.676 48.8484 143.676 47.2256C143.676 45.6163 144.053 44.379 144.805 43.5135C145.558 42.648 146.749 42.2152 148.373 42.2152C149.999 42.2152 151.189 42.648 151.941 43.5135C152.695 44.379 153.071 45.6163 153.071 47.2256C153.071 48.8484 152.702 50.0926 151.961 50.9581C151.222 51.81 150.026 52.236 148.373 52.236ZM148.373 50.8161C149.496 50.8161 150.29 50.5321 150.752 49.9641C151.215 49.3826 151.446 48.4698 151.446 47.2256C151.446 45.9814 151.209 45.0755 150.732 44.5075C150.27 43.9259 149.483 43.6351 148.373 43.6351C147.264 43.6351 146.47 43.9259 145.995 44.5075C145.533 45.0755 145.301 45.9814 145.301 47.2256C145.301 48.4698 145.533 49.3826 145.995 49.9641C146.458 50.5321 147.25 50.8161 148.373 50.8161Z" fill="white"/>
<path d="M155.058 52.0336V50.634H156.525V52.0336H155.058Z" fill="white"/>
</svg>
