<svg width="213" height="61" viewBox="0 0 213 61" fill="none" xmlns="http://www.w3.org/2000/svg">
<path fill-rule="evenodd" clip-rule="evenodd" d="M105.236 6.90344C107.289 4.8029 110.617 4.8029 112.67 6.90344C114.722 9.00413 114.722 12.4099 112.67 14.5106L100.154 27.3177C96.5608 22.3898 96.9512 15.3811 101.325 10.9052L105.236 6.90344Z" fill="#4F9E91"/>
<path fill-rule="evenodd" clip-rule="evenodd" d="M123.127 35.7983C125.181 37.8988 125.181 41.3048 123.127 43.4053C121.076 45.506 117.747 45.506 115.694 43.4053L103.179 30.5983C107.994 26.9213 114.843 27.3206 119.217 31.7966L123.127 35.7983Z" fill="#EBE1C5"/>
<path fill-rule="evenodd" clip-rule="evenodd" d="M94.8906 54.1077C92.8379 56.2084 89.5095 56.2084 87.4568 54.1077C85.4039 52.007 85.4039 48.6012 87.4568 46.5005L99.9721 33.6935C103.565 38.6215 103.175 45.6301 98.8012 50.106L94.8906 54.1077Z" fill="#EBCC6E"/>
<path fill-rule="evenodd" clip-rule="evenodd" d="M76.9986 25.2119C74.9458 23.1112 74.9458 19.7054 76.9986 17.6048C79.0515 15.5041 82.3797 15.5041 84.4326 17.6048L96.9481 30.4119C92.1323 34.0889 85.2831 33.6894 80.9092 29.2136L76.9986 25.2119Z" fill="#ED834E"/>
<path fill-rule="evenodd" clip-rule="evenodd" d="M102.439 52.539C105.466 49.0951 106.873 44.6883 106.659 40.3495L112.67 46.5002C112.685 46.5154 112.7 46.5307 112.715 46.546V50.9372C112.715 53.908 110.362 56.3162 107.458 56.3162C105.1 56.3162 103.105 54.7275 102.439 52.539Z" fill="#ED834E"/>
<path fill-rule="evenodd" clip-rule="evenodd" d="M78.5315 32.9362C81.8968 36.0338 86.2033 37.4735 90.4433 37.2551L84.4328 43.4058C84.4177 43.4211 84.4028 43.4365 84.388 43.4518H80.0968C77.1937 43.452 74.8402 41.0435 74.8402 38.0728C74.8402 35.66 76.3928 33.618 78.5315 32.9362Z" fill="#4F9E91"/>
<path fill-rule="evenodd" clip-rule="evenodd" d="M121.595 28.0752C118.23 24.9776 113.923 23.538 109.683 23.7563L115.694 17.6057C115.709 17.5904 115.724 17.575 115.739 17.5595H120.03C122.934 17.5595 125.287 19.968 125.287 22.9387C125.287 25.3517 123.734 27.3935 121.595 28.0752Z" fill="#EBCC6E"/>
<path fill-rule="evenodd" clip-rule="evenodd" d="M97.6878 8.47194C94.6607 11.9157 93.254 16.3225 93.4673 20.6615L87.4568 14.5108C87.4417 14.4955 87.4268 14.4802 87.4117 14.4649V10.0737C87.4117 7.10297 89.7651 4.69455 92.6682 4.69455C95.0262 4.69455 97.0216 6.28346 97.6878 8.47194Z" fill="#EBE1C5"/>
<path fill-rule="evenodd" clip-rule="evenodd" d="M92.6684 0.31842C87.4033 0.31842 83.135 4.68615 83.135 10.074V11.9714C79.9674 11.1245 76.4569 11.9709 73.9747 14.511C70.2516 18.3208 70.2516 24.4977 73.9747 28.3075L75.2857 29.6491C72.4607 31.3423 70.5634 34.4809 70.5634 38.073C70.5634 43.4608 74.8317 47.8285 80.0968 47.8285H81.9509C81.1233 51.0699 81.9504 54.6622 84.4327 57.2022C88.1558 61.012 94.192 61.012 97.915 57.2022L101.825 53.2006C105.275 49.6705 106.886 44.9715 106.659 40.3496L112.67 46.5003C116.393 50.3101 122.429 50.3101 126.152 46.5003C129.876 42.6905 129.876 36.5136 126.152 32.704L124.842 31.3625C127.666 29.6693 129.563 26.5307 129.563 22.9386C129.563 17.5508 125.294 13.1831 120.03 13.1831H118.176C119.003 9.94151 118.176 6.34923 115.694 3.80912C111.971 -0.000665635 105.935 -0.000665635 102.212 3.80912L98.3011 7.81085C94.8514 11.3409 93.2403 16.0398 93.4676 20.6617L87.457 14.511C87.4419 14.4957 87.4269 14.4804 87.4119 14.4652V10.074C87.4119 7.1032 89.7653 4.69493 92.6684 4.69493C95.0264 4.69493 97.0217 6.28369 97.688 8.47218C97.8854 8.24754 98.0897 8.02701 98.301 7.81085L100.901 5.1507C99.2459 2.25987 96.1787 0.31842 92.6684 0.31842ZM115.739 17.5596C115.724 17.5749 115.709 17.5903 115.694 17.6056L109.683 23.7561C113.924 23.5379 118.23 24.9774 121.595 28.0751C123.734 27.3934 125.287 25.3514 125.287 22.9386C125.287 19.9678 122.934 17.5596 120.03 17.5596H115.739ZM84.3878 43.452C84.4027 43.4366 84.4176 43.4211 84.4327 43.4059L90.4432 37.2552C86.2032 37.4736 81.8969 36.0339 78.5315 32.9365C76.3929 33.6182 74.8402 35.66 74.8402 38.073C74.8402 41.0438 77.1937 43.452 80.0968 43.452H84.3878ZM78.3676 32.7836C78.2045 32.6293 78.0437 32.4712 77.8853 32.309V32.3092C78.0437 32.4713 78.2045 32.6293 78.3676 32.7836ZM107.458 60.6932C103.948 60.6932 100.881 58.7516 99.2261 55.8607L101.825 53.2006C102.037 52.9844 102.241 52.7639 102.439 52.5393C103.105 54.7277 105.1 56.3167 107.458 56.3167C110.361 56.3167 112.715 53.9084 112.715 50.9376V46.5464C113.947 47.7905 115.427 48.6219 116.992 49.0401V50.9376C116.992 56.3254 112.723 60.6932 107.458 60.6932ZM112.67 6.9037C110.617 4.80316 107.289 4.80316 105.236 6.9037L101.325 10.9054C96.9513 15.3814 96.561 22.39 100.154 27.318L112.67 14.5109C114.723 12.4102 114.723 9.00439 112.67 6.9037ZM123.127 43.4057C125.181 41.305 125.181 37.8992 123.127 35.7985L119.217 31.7968C114.843 27.321 107.994 26.9215 103.178 30.5986L115.694 43.4057C117.747 45.5064 121.076 45.5064 123.127 43.4057ZM94.8908 54.1076C92.8379 56.2083 89.5097 56.2083 87.4568 54.1076C85.4041 52.0069 85.4041 48.6011 87.4568 46.5004L99.9723 33.6933C103.566 38.6213 103.175 45.6301 98.8014 50.1059L94.8908 54.1076ZM76.9988 17.6056C74.9461 19.7063 74.9461 23.1121 76.9988 25.2128L80.9094 29.2145C85.2834 33.6903 92.1325 34.0897 96.9482 30.4127L84.4327 17.6056C82.3799 15.5051 79.0516 15.5051 76.9988 17.6056Z" fill="#3D3A2C"/>
<path d="M0 20.0457H4.67521V34.9119H12.705V38.9392H0V20.0457Z" fill="white"/>
<path d="M21.1937 39.3447C19.6265 39.3447 18.2529 39.0563 17.0731 38.4798C15.8933 37.885 14.9776 37.0742 14.326 36.0471C13.6922 35.0019 13.3752 33.8037 13.3752 32.4521C13.3752 31.1007 13.6922 29.9114 14.326 28.8844C14.9776 27.8392 15.8933 27.0283 17.0731 26.4517C18.2529 25.857 19.6265 25.5597 21.1937 25.5597C22.761 25.5597 24.1344 25.857 25.3142 26.4517C26.4941 27.0283 27.401 27.8392 28.0348 28.8844C28.6864 29.9114 29.0121 31.1007 29.0121 32.4521C29.0121 33.8037 28.6864 35.0019 28.0348 36.0471C27.401 37.0742 26.4941 37.885 25.3142 38.4798C24.1344 39.0563 22.761 39.3447 21.1937 39.3447ZM21.1937 35.6416C22.127 35.6416 22.8666 35.3623 23.4124 34.8038C23.976 34.2271 24.2576 33.4433 24.2576 32.4521C24.2576 31.4611 23.976 30.6863 23.4124 30.1277C22.8666 29.551 22.127 29.2628 21.1937 29.2628C20.2603 29.2628 19.512 29.551 18.9486 30.1277C18.4026 30.6863 18.1297 31.4611 18.1297 32.4521C18.1297 33.4433 18.4026 34.2271 18.9486 34.8038C19.512 35.3623 20.2603 35.6416 21.1937 35.6416Z" fill="white"/>
<path d="M37.7443 45.156C36.899 45.156 36.0449 45.0749 35.1821 44.9128C34.3369 44.7505 33.606 44.5343 32.9898 44.264V40.9664C34.3808 41.579 35.9657 41.8854 37.7443 41.8854C39.0297 41.8854 39.9542 41.6151 40.5176 41.0745C41.0988 40.534 41.3893 39.7411 41.3893 38.6959V37.9121C40.8787 38.3626 40.2447 38.7139 39.4875 38.9663C38.7479 39.2186 37.9555 39.3447 37.1103 39.3447C35.772 39.3447 34.5922 39.0563 33.5708 38.4798C32.5496 37.903 31.7483 37.0922 31.1672 36.0471C30.6036 35.0019 30.322 33.8037 30.322 32.4521C30.322 31.0827 30.6036 29.8754 31.1672 28.8303C31.7307 27.7851 32.5231 26.9832 33.5445 26.4246C34.5657 25.8481 35.7368 25.5597 37.0575 25.5597C38.8713 25.5597 40.3679 26.1274 41.5478 27.2626V25.9651H46.0382V38.0473C46.0382 40.2997 45.3602 42.0477 44.0043 43.291C42.6661 44.5343 40.5793 45.156 37.7443 45.156ZM38.2725 35.6687C38.9945 35.6687 39.6372 35.4795 40.2007 35.1011C40.7642 34.7226 41.1604 34.2181 41.3893 33.5874V31.317C41.1428 30.6863 40.7378 30.1907 40.1743 29.8303C39.6107 29.452 38.9769 29.2628 38.2725 29.2628C37.3217 29.2628 36.5556 29.551 35.9745 30.1277C35.3933 30.6863 35.1028 31.452 35.1028 32.4252C35.1028 33.4162 35.3933 34.2091 35.9745 34.8038C36.5556 35.3803 37.3217 35.6687 38.2725 35.6687Z" fill="white"/>
<path d="M55.0361 39.3447C53.4689 39.3447 52.0955 39.0563 50.9156 38.4798C49.7358 37.885 48.82 37.0742 48.1686 36.0471C47.5346 35.0019 47.2176 33.8037 47.2176 32.4521C47.2176 31.1007 47.5346 29.9114 48.1686 28.8844C48.82 27.8392 49.7358 27.0283 50.9156 26.4517C52.0955 25.857 53.4689 25.5597 55.0361 25.5597C56.6034 25.5597 57.9768 25.857 59.1567 26.4517C60.3365 27.0283 61.2434 27.8392 61.8774 28.8844C62.5288 29.9114 62.8547 31.1007 62.8547 32.4521C62.8547 33.8037 62.5288 35.0019 61.8774 36.0471C61.2434 37.0742 60.3365 37.885 59.1567 38.4798C57.9768 39.0563 56.6034 39.3447 55.0361 39.3447ZM55.0361 35.6416C55.9694 35.6416 56.709 35.3623 57.255 34.8038C57.8184 34.2271 58.1002 33.4433 58.1002 32.4521C58.1002 31.4611 57.8184 30.6863 57.255 30.1277C56.709 29.551 55.9694 29.2628 55.0361 29.2628C54.1029 29.2628 53.3544 29.551 52.791 30.1277C52.245 30.6863 51.9721 31.4611 51.9721 32.4521C51.9721 33.4433 52.245 34.2271 52.791 34.8038C53.3544 35.3623 54.1029 35.6416 55.0361 35.6416Z" fill="white"/>
<path d="M137.418 20.0457H142.094V38.9392H137.418V20.0457Z" fill="white"/>
<path d="M144.461 25.9651H148.952V27.2626C150.131 26.1274 151.627 25.5597 153.441 25.5597C154.762 25.5597 155.933 25.8481 156.954 26.4246C157.976 26.9832 158.768 27.7851 159.331 28.8303C159.895 29.8574 160.177 31.0558 160.177 32.4252C160.177 33.7766 159.895 34.9839 159.331 36.0471C158.768 37.0922 157.976 37.903 156.954 38.4798C155.951 39.0563 154.78 39.3447 153.441 39.3447C152.596 39.3447 151.786 39.2095 151.012 38.9392C150.255 38.687 149.62 38.3355 149.11 37.885V44.8586H144.461V25.9651ZM152.227 35.6416C153.178 35.6416 153.944 35.3534 154.524 34.7767C155.105 34.2001 155.397 33.4162 155.397 32.4252C155.397 31.434 155.105 30.6593 154.524 30.1006C153.944 29.5241 153.178 29.2357 152.227 29.2357C151.522 29.2357 150.888 29.4249 150.324 29.8033C149.761 30.1637 149.357 30.6593 149.11 31.2899V33.5874C149.357 34.2181 149.761 34.7226 150.324 35.1011C150.888 35.4615 151.522 35.6416 152.227 35.6416Z" fill="white"/>
<path d="M167.107 39.3447C166.087 39.3447 165.022 39.2366 163.912 39.0203C162.803 38.8222 161.921 38.5338 161.27 38.1554V34.6686C161.992 35.1011 162.855 35.4615 163.859 35.7498C164.88 36.02 165.813 36.1552 166.659 36.1552C167.274 36.1552 167.724 36.1101 168.005 36.02C168.288 35.93 168.428 35.7498 168.428 35.4795C168.428 35.2632 168.332 35.092 168.138 34.9659C167.962 34.8218 167.627 34.6775 167.134 34.5334C166.659 34.3713 166.104 34.2001 165.47 34.0198C164.396 33.6955 163.551 33.3621 162.934 33.0198C162.318 32.6774 161.861 32.2449 161.56 31.7224C161.261 31.1999 161.112 30.5422 161.112 29.7493C161.112 28.3437 161.649 27.2986 162.723 26.6139C163.815 25.911 165.303 25.5597 167.187 25.5597C168.103 25.5597 169.063 25.6589 170.066 25.857C171.088 26.0553 171.853 26.3166 172.364 26.6409V30.0737C171.836 29.7133 171.131 29.4158 170.251 29.1817C169.388 28.9473 168.578 28.8303 167.82 28.8303C167.223 28.8303 166.755 28.8933 166.421 29.0194C166.087 29.1276 165.92 29.3258 165.92 29.6141C165.92 29.8845 166.087 30.0917 166.421 30.2358C166.755 30.3799 167.354 30.5602 168.217 30.7763C168.78 30.9206 169.018 30.9836 168.93 30.9655C170.057 31.2719 170.928 31.6143 171.545 31.9927C172.162 32.3711 172.592 32.8216 172.839 33.3441C173.104 33.8487 173.236 34.4974 173.236 35.2903C173.236 36.5336 172.708 37.5246 171.651 38.2635C170.612 38.9843 169.097 39.3447 167.107 39.3447Z" fill="white"/>
<path d="M180.176 39.3448C178.434 39.3448 177.122 38.8493 176.242 37.8582C175.379 36.8671 174.947 35.5608 174.947 33.939V25.9652H179.596V33.3983C179.596 34.894 180.256 35.6418 181.577 35.6418C182.176 35.6418 182.722 35.4977 183.215 35.2093C183.707 34.9209 184.112 34.4976 184.429 33.939V25.9652H189.078V38.9393H184.589V37.5339C184.043 38.1284 183.382 38.5789 182.607 38.8853C181.833 39.1916 181.022 39.3448 180.176 39.3448Z" fill="white"/>
<path d="M191.458 25.9651H195.765V27.3707C196.293 26.7942 196.901 26.3526 197.587 26.0463C198.273 25.7219 199.004 25.5598 199.779 25.5598C200.73 25.5598 201.488 25.7039 202.051 25.9922C202.633 26.2806 203.098 26.713 203.451 27.2896C203.979 26.7491 204.622 26.3255 205.379 26.0193C206.137 25.7129 206.903 25.5598 207.677 25.5598C209.35 25.5598 210.539 26.0013 211.243 26.8842C211.947 27.7491 212.299 29.0014 212.299 30.6412V38.9392H207.862V31.317C207.862 30.5962 207.73 30.0737 207.465 29.7493C207.202 29.4249 206.761 29.2628 206.146 29.2628C205.353 29.2628 204.709 29.551 204.217 30.1277C204.234 30.434 204.243 30.9026 204.243 31.5332V38.9392H199.806V31.1278C199.806 30.4611 199.692 29.9835 199.463 29.6953C199.233 29.4069 198.828 29.2628 198.248 29.2628C197.349 29.2628 196.575 29.7763 195.923 30.8035V38.9392H191.458V25.9651Z" fill="white"/>
</svg>
